# xmcd
#
# Track frame offsets:
# 150
# 21702
# 38596
# 55543
# 77952
# 96182
# 116561
# 134426
# 151825
# 169641
# 188631
# 202568
# 222238
# 239896
# 256457
# 271663
#
# Disc length: 3887 seconds
#
#
# Revision: 0
# Processed by: cddbd v1.5.1PL2 Copyright (c) Steve Scherf et al.
# Submitted via: FreeRIP 2.941 
#
DISCID=d60f2d10
DTITLE='NDUCCIO - ROCK AGRICOLO
DYEAR=2004
DGENRE=Pop
TTITLE0=Non ancora lo so
TTITLE1=Le donne
TTITLE2=Bravo ti metto sei
TTITLE3=Papera 'mbusse
TTITLE4=Giovanni Blouse
TTITLE5=La cambagna
TTITLE6=Signori'
TTITLE7=Giovanni'
TTITLE8=Cafune
TTITLE9=La pettela
TTITLE10=Storia agricola
TTITLE11=Arcala da la pianta
TTITLE12=Zi Peppe
TTITLE13=Pay hard rock
TTITLE14=Sott'a la capanne
TTITLE15=Yes amore
EXTD=
EXTT0=
EXTT1=
EXTT2=
EXTT3=
EXTT4=
EXTT5=
EXTT6=
EXTT7=
EXTT8=
EXTT9=
EXTT10=
EXTT11=
EXTT12=
EXTT13=
EXTT14=
EXTT15=
PLAYORDER=
